# xmcd
#
# Track frame offsets: 
#        150
#        15204
#        28399
#        42081
#        54618
#        69676
#        83208
#        97983
#        111856
#        123091
#        142264
#        156122
#        168918
#        183556
#        195667
#
# Disc length: 2780 seconds
#
# Revision: 2
# Processed by: cddbd v1.5.2PL0 Copyright (c) Steve Scherf et al.
# Submitted via: ExactAudioCopy v1.0b4
#
DISCID=c80ada0f
DTITLE=Cisco - I've Done It All - Vol.1
DYEAR=2014
DGENRE=Country
TTITLE0=Down The Road I Go
TTITLE1=Folsom Prison Blues
TTITLE2=Miller's Cave
TTITLE3=I'll Remember Her That Way
TTITLE4=Long Black Veil
TTITLE5=Blue Mesa
TTITLE6=Baby's Gone
TTITLE7=Don't Take Your Guns To Town
TTITLE8=Roamin' Wyoming
TTITLE9=It's Out Of My Hands
TTITLE10=My Shoes Keep Walkin' Back To You
TTITLE11=Understand Your Man
TTITLE12=She's In Love With A Rodeo Man
TTITLE13=I've Done It All
TTITLE14=You're My Best Friend
EXTD=
EXTT0=
EXTT1=
EXTT2=
EXTT3=
EXTT4=
EXTT5=
EXTT6=
EXTT7=
EXTT8=
EXTT9=
EXTT10=
EXTT11=
EXTT12=
EXTT13=
EXTT14=
PLAYORDER=
